<svg viewBox="0 0 23 20" fill="none" xmlns="http://www.w3.org/2000/svg">
<g id="Group 1" opacity="0.5">
<g id="Union">
<path d="M7.26771 9.51724C4.59181 9.51724 2.42257 7.38673 2.42257 4.75862C2.42257 2.13051 4.59181 0 7.26771 0C9.94361 0 12.1129 2.13051 12.1129 4.75862C12.1129 7.38673 9.94361 9.51724 7.26771 9.51724Z" fill="#212135"/>
<path d="M7.26771 19.0345C1.28275 19.0345 0 18.3346 0 15.069C0 11.8034 1.28275 11.1034 7.26771 11.1034C13.2527 11.1034 14.5354 11.8034 14.5354 15.069C14.5354 18.3346 13.2527 19.0345 7.26771 19.0345Z" fill="#212135"/>
<path d="M17.7655 5.55172C17.7655 3.57992 16.1635 1.58621 13.7279 1.58621C13.2819 1.58621 12.9204 1.94129 12.9204 2.37931C12.9204 2.81733 13.2819 3.17241 13.7279 3.17241C15.1684 3.17241 16.1505 4.35111 16.1505 5.55172C16.1505 6.75234 15.1684 7.93103 13.7279 7.93103C13.2819 7.93103 12.9204 8.28612 12.9204 8.72414C12.9204 9.16216 13.2819 9.51724 13.7279 9.51724C16.1635 9.51724 17.7655 7.52352 17.7655 5.55172Z" fill="#212135"/>
<path d="M15.3429 10.3103C14.897 10.3103 14.5354 10.6654 14.5354 11.1034C14.5354 11.5415 14.897 11.8966 15.3429 11.8966C17.5961 11.8966 18.9406 12.0064 19.7233 12.3301C20.0774 12.4765 20.2652 12.648 20.3801 12.8414C20.5035 13.0491 20.5919 13.3653 20.5919 13.8793C20.5919 14.3904 20.5046 14.7263 20.3854 14.9528C20.2725 15.1674 20.1076 15.3292 19.8585 15.4597C19.3011 15.7517 18.384 15.8621 16.958 15.8621C16.512 15.8621 16.1505 16.2172 16.1505 16.6552C16.1505 17.0932 16.512 17.4483 16.958 17.4483C18.3584 17.4483 19.6619 17.3604 20.6186 16.8593C21.1266 16.5932 21.542 16.2098 21.8203 15.6809C22.0923 15.1638 22.2069 14.5579 22.2069 13.8793C22.2069 13.2037 22.0934 12.578 21.7751 12.0422C21.4484 11.4921 20.9549 11.1183 20.35 10.8682C19.2149 10.3988 17.5311 10.3103 15.3429 10.3103Z" fill="#212135"/>
</g>
</g>
</svg>
